<?xml version="1.0" encoding="UTF-8" standalone="no"?>
<!-- Created with Inkscape (http://www.inkscape.org/) -->

<svg
   xmlns:dc="http://purl.org/dc/elements/1.1/"
   xmlns:cc="http://creativecommons.org/ns#"
   xmlns:rdf="http://www.w3.org/1999/02/22-rdf-syntax-ns#"
   xmlns:svg="http://www.w3.org/2000/svg"
   xmlns="http://www.w3.org/2000/svg"
   xmlns:sodipodi="http://sodipodi.sourceforge.net/DTD/sodipodi-0.dtd"
   xmlns:inkscape="http://www.inkscape.org/namespaces/inkscape"
   width="1411.4989"
   height="598.26752"
   id="svg2"
   version="1.1"
   inkscape:version="0.91 r13725"
   sodipodi:docname="bunsenlabs-text-flame-mercury.svg">
  <defs
     id="defs4" />
  <sodipodi:namedview
     id="base"
     pagecolor="#bebebe"
     bordercolor="#666666"
     borderopacity="1.0"
     inkscape:pageopacity="0"
     inkscape:pageshadow="2"
     inkscape:zoom="0.69687447"
     inkscape:cx="724.73415"
     inkscape:cy="178.11261"
     inkscape:document-units="px"
     inkscape:current-layer="layer2"
     showgrid="true"
     borderlayer="false"
     showborder="true"
     fit-margin-top="20"
     fit-margin-left="20"
     fit-margin-right="20"
     fit-margin-bottom="20"
     inkscape:showpageshadow="false"
     inkscape:window-width="1918"
     inkscape:window-height="1078"
     inkscape:window-x="0"
     inkscape:window-y="0"
     inkscape:window-maximized="0"
     inkscape:snap-global="false">
    <inkscape:grid
       type="xygrid"
       id="grid3009"
       empspacing="5"
       visible="true"
       enabled="true"
       snapvisiblegridlinesonly="true"
       originx="-102.69531px"
       originy="-767.87369px" />
  </sodipodi:namedview>
  <metadata
     id="metadata7">
    <rdf:RDF>
      <cc:Work
         rdf:about="">
        <dc:format>image/svg+xml</dc:format>
        <dc:type
           rdf:resource="http://purl.org/dc/dcmitype/StillImage" />
        <dc:title></dc:title>
      </cc:Work>
    </rdf:RDF>
  </metadata>
  <g
     inkscape:label="text"
     inkscape:groupmode="layer"
     id="layer1"
     transform="translate(-102.69531,313.77902)"
     style="display:inline" />
  <g
     inkscape:groupmode="layer"
     id="layer2"
     inkscape:label="flame"
     style="display:inline">
    <path
       sodipodi:nodetypes="ccccccc"
       inkscape:connector-curvature="0"
       id="path3774"
       d="m 662.99503,254.35556 c -29.53426,-60.59677 -19.23447,-147.83803 52.83631,-192.917271 -2.83395,8.291845 -1.90534,22.118963 2.12275,32.444053 11.04784,25.482828 32.99354,47.117748 41.02922,88.230308 11.123,57.54142 -9.94564,112.50468 -47.50439,155.77217 18.82241,-61.22112 28.34163,-135.89081 -16.74867,-172.57259 -31.55836,28.30603 -32.75744,54.66155 -31.73522,89.04333 z"
       style="fill:#f6b620;stroke:#f6b620;stroke-width:3.15324903;stroke-linecap:round;stroke-linejoin:round;stroke-miterlimit:4;stroke-opacity:1;stroke-dasharray:none;display:inline;fill-opacity:1" />
    <path
       style="font-style:normal;font-variant:normal;font-weight:200;font-stretch:normal;font-size:medium;line-height:125%;font-family:'Open Sans';-inkscape-font-specification:'Open Sans';text-align:start;letter-spacing:0px;word-spacing:0px;writing-mode:lr-tb;text-anchor:start;fill:#f6b620;fill-opacity:1;stroke:none"
       id="path3056"
       d="m 1367.0107,522.38937 c -10e-5,12.04858 -4.5802,21.33256 -13.7403,27.85198 -9.1603,6.4369 -22.1579,9.65536 -38.9928,9.65536 -17.9903,0 -32.267,-2.76458 -42.8301,-8.2937 l 0,-13.24517 c 13.5339,6.76702 27.8106,10.15051 42.8301,10.15051 13.2864,0 23.3544,-2.18689 30.204,-6.56071 6.9319,-4.45628 10.3979,-10.35677 10.398,-17.70146 -10e-5,-6.76697 -2.7646,-12.46114 -8.2937,-17.08256 -5.4467,-4.62131 -14.4418,-9.16014 -26.9855,-13.61652 -13.4515,-4.86887 -22.9005,-9.03635 -28.3471,-12.50245 -5.4466,-3.54847 -9.5728,-7.50963 -12.3786,-11.88351 -2.7234,-4.45622 -4.085,-9.86156 -4.085,-16.21604 0,-10.06786 4.2087,-18.03146 12.6262,-23.89081 8.5,-5.8591 20.3423,-8.78871 35.5268,-8.78885 14.5242,1.4e-4 28.3058,2.72344 41.3447,8.16992 l -4.5801,11.14079 c -13.204,-5.44649 -25.4588,-8.16979 -36.7646,-8.16992 -10.9758,1.3e-4 -19.6821,1.81566 -26.119,5.44661 -6.4369,3.63119 -9.6554,8.66517 -9.6553,15.10197 -10e-5,7.01467 2.4757,12.62632 7.4272,16.83497 5.0339,4.20883 14.813,8.91271 29.3374,14.11167 12.131,4.37387 20.9611,8.33503 26.4903,11.88351 5.529,3.46609 9.6553,7.42725 12.3787,11.88351 2.8057,4.45637 4.2086,9.69667 4.2087,15.7209 M 1189.377,420.26544 c 18.8154,1.4e-4 32.9683,5.94189 42.4588,17.82527 9.5727,11.80109 14.3591,29.08994 14.3592,51.86658 -10e-5,22.36414 -5.0341,39.61173 -15.102,51.74279 -9.9855,12.13109 -24.0559,18.19663 -42.2112,18.19663 -9.5729,0 -18.1967,-1.98058 -25.8714,-5.94175 -7.6748,-3.96117 -13.7403,-9.57283 -18.1966,-16.83498 l -1.1141,0 -3.466,20.301 -7.6748,0 0,-192.61193 12.2549,0 0,48.40055 c 0,7.26229 -0.1651,13.94676 -0.4952,20.05343 l -0.3713,10.52186 0.8665,0 c 5.1165,-8.08727 11.2645,-14.02902 18.4442,-17.82527 7.2621,-3.79598 15.9684,-5.69404 26.119,-5.69418 m -0.2476,11.14079 c -15.8448,1.3e-4 -27.1918,4.53897 -34.0413,13.61653 -6.8496,9.07778 -10.2743,24.05595 -10.2743,44.93453 l 0,2.10437 c 0,20.30104 3.5485,34.86658 10.6456,43.69666 7.1796,8.83012 18.3204,13.24517 33.4224,13.24517 14.6893,0 25.7475,-5.11651 33.1748,-15.34953 7.4271,-10.31553 11.1407,-24.96358 11.1408,-43.94425 -10e-5,-38.86888 -14.6894,-58.30335 -44.068,-58.30348 m -109.056,126.01475 -3.0947,-21.29129 -0.9902,0 c -6.7671,8.66507 -13.7405,14.81312 -20.92,18.44419 -7.0971,3.54854 -15.5146,5.32283 -25.2524,5.32283 -13.204,0 -23.4783,-3.38351 -30.8229,-10.15051 -7.34469,-6.76698 -11.01701,-16.13349 -11.01701,-28.09956 0,-13.12131 5.44659,-23.31307 16.33981,-30.57527 10.9757,-7.26208 26.8204,-11.09946 47.5341,-11.51216 l 25.6238,-0.74272 0,-8.91263 c -10e-5,-12.79118 -2.5996,-22.44652 -7.7986,-28.96606 -5.1991,-6.5193 -13.5753,-9.77901 -25.1286,-9.77914 -12.4613,1.3e-4 -25.3763,3.46615 -38.7452,10.39807 l -4.5801,-10.64564 c 14.7718,-6.93192 29.3786,-10.39794 43.8204,-10.39808 14.7718,1.4e-4 25.7888,3.83752 33.051,11.51216 7.3446,7.67488 11.0169,19.64091 11.017,35.8981 l 0,89.49771 -9.0364,0 m -49.5146,-8.66507 c 14.3591,2e-5 25.665,-4.08493 33.9175,-12.25488 8.3349,-8.2524 12.5023,-19.68201 12.5024,-34.28887 l 0,-13.24517 -23.5194,0.9903 c -18.8981,0.90783 -32.3909,3.87871 -40.4782,8.91262 -8.0049,4.95152 -12.0073,12.70881 -12.0073,23.27188 0,8.41752 2.5582,14.97821 7.6747,19.68207 5.199,4.62139 12.5025,6.93207 21.9103,6.93205 m -77.36664,8.66507 -12.25488,0 0,-192.61193 12.25488,0 0,192.61193 m -82.75218,0 0,-87.76469 c -1.3e-4,-11.05817 -2.51711,-19.3106 -7.551,-24.75732 -5.03408,-5.44649 -12.91516,-8.16979 -23.64322,-8.16991 -14.19427,1.2e-4 -24.59234,3.8375 -31.19422,11.51215 -6.602,7.67487 -9.90298,20.34235 -9.90293,38.00248 l 0,71.17729 -20.54858,0 0,-135.6701 16.71119,0 3.34225,18.56799 0.99029,0 c 4.2087,-6.68435 10.10917,-11.84212 17.70147,-15.47333 7.59219,-3.71346 16.05092,-5.57025 25.37626,-5.57039 16.33972,1.4e-4 28.63585,3.9613 36.88839,11.88351 8.25232,7.83994 12.37854,20.42489 12.37866,37.75491 l 0,88.50741 -20.54856,0 m -177.63375,2.47573 c -20.05349,0 -35.89816,-6.1068 -47.53405,-18.32041 -11.55343,-12.21359 -17.33014,-29.17233 -17.33012,-50.87629 -2e-5,-21.86888 5.36405,-39.24024 16.09224,-52.11415 10.81067,-12.87368 25.29368,-19.31057 43.4491,-19.31071 16.99993,1.4e-4 30.4514,5.61179 40.35443,16.83497 9.90281,11.14091 14.85425,25.8715 14.85439,44.19181 l 0,12.9976 -93.45887,0 c 0.41258,15.92724 4.41501,28.01705 12.00729,36.26946 7.67473,8.25247 18.44415,12.37867 32.3083,12.37865 14.60673,2e-5 29.04848,-3.05337 43.32531,-9.16019 l 0,18.32041 c -7.26227,3.13593 -14.15305,5.36408 -20.67236,6.68447 -6.437,1.40292 -14.23555,2.10438 -23.39566,2.10438 m -5.5704,-123.41523 c -10.89329,1.2e-4 -19.59961,3.54867 -26.11897,10.64565 -6.43694,7.0972 -10.23306,16.91759 -11.38837,29.46121 l 70.92971,0 c -10e-5,-12.95624 -2.88845,-22.85916 -8.66505,-29.70878 -5.77681,-6.93194 -14.02923,-10.39796 -24.75732,-10.39808 m -85.04138,83.92731 c -1.1e-4,12.62626 -4.70401,22.36412 -14.11168,29.21363 -9.40785,6.84952 -22.61176,10.27429 -39.61171,10.27429 -17.99035,0 -32.01948,-2.84709 -42.08744,-8.54129 l 0,-19.06312 c 6.51942,3.30099 13.49272,5.90051 20.91995,7.79856 7.50967,1.89807 14.73055,2.84709 21.66264,2.84708 10.72811,10e-6 18.98054,-1.69172 24.75731,-5.07525 5.77664,-3.46601 8.66498,-8.70628 8.66507,-15.7209 -9e-5,-5.28151 -2.31077,-9.77909 -6.93205,-13.49273 -4.53892,-3.79607 -13.45153,-8.25239 -26.7379,-13.36895 -12.62627,-4.70382 -21.62142,-8.78878 -26.98548,-12.25487 -5.28158,-3.54847 -9.24275,-7.5509 -11.88351,-12.0073 -2.55827,-4.45623 -3.83739,-9.77904 -3.83737,-15.96847 -2e-5,-11.05815 4.49754,-19.76447 13.49273,-26.11897 8.99511,-6.43677 21.3325,-9.65521 37.01219,-9.65535 14.60674,1.4e-4 28.88343,2.97101 42.83015,8.91263 l -7.30341,16.71119 c -13.61661,-5.61154 -25.95398,-8.41737 -37.01218,-8.41749 -9.73793,1.2e-4 -17.08259,1.52682 -22.03402,4.58011 -4.9515,3.05351 -7.42723,7.26225 -7.42719,12.62623 -4e-5,3.63117 0.90774,6.72583 2.72331,9.28399 1.89802,2.55835 4.91016,4.99282 9.03642,7.30341 4.12616,2.31077 12.0485,5.653 23.76702,10.02671 16.09218,5.85931 26.94411,11.75979 32.55588,17.70149 5.69406,5.94181 8.54116,13.41025 8.54127,22.40537 m -150.15313,37.01219 0,-87.76469 c -1.2e-4,-11.05817 -2.5171,-19.3106 -7.55099,-24.75732 -5.03408,-5.44649 -12.91516,-8.16979 -23.64322,-8.16991 -14.19427,1.2e-4 -24.59234,3.8375 -31.19422,11.51215 -6.60201,7.67487 -9.90298,20.34235 -9.90293,38.00248 l 0,71.17729 -20.54858,0 0,-135.6701 16.71119,0 3.34224,18.56799 0.9903,0 c 4.2087,-6.68435 10.10917,-11.84212 17.70146,-15.47333 7.5922,-3.71346 16.05093,-5.57025 25.37627,-5.57039 16.33972,1.4e-4 28.63585,3.9613 36.88839,11.88351 8.25232,7.83994 12.37854,20.42489 12.37866,37.75491 l 0,88.50741 -20.54857,0 m -229.00518,-135.6701 0,88.01225 c -4e-5,11.05832 2.51694,19.31075 7.55097,24.75732 5.03395,5.44663 12.91502,8.16994 23.64325,8.16992 14.1941,2e-5 24.55091,-3.87863 31.07043,-11.63594 6.60185,-7.75726 9.90281,-20.42473 9.90293,-38.00248 l 0,-71.30107 20.54856,0 0,135.6701 -16.95875,0 -2.97088,-18.19663 -1.11408,0 c -4.20886,6.68448 -10.06808,11.80099 -17.5777,15.34953 -7.42728,3.54854 -15.92729,5.32283 -25.50003,5.32283 -16.50493,0 -28.88357,-3.9199 -37.13597,-11.75973 -8.16994,-7.83981 -12.2549,-20.3835 -12.25488,-37.63112 l 0,-88.75498 20.79615,0 m -111.65549,-2.22816 c 17.82516,1.4e-4 31.64797,6.10694 41.46849,18.32042 9.9028,12.13119 14.85425,29.33751 14.85439,51.619 -1.4e-4,22.28163 -4.99285,39.61174 -14.97817,51.99036 -9.90304,12.29614 -23.6846,18.44421 -41.34471,18.44421 -8.83019,0 -16.917582,-1.60924 -24.262174,-4.82768 -7.262199,-3.30097 -13.369004,-8.33495 -18.320414,-15.10197 l -1.485439,0 -4.332535,17.45392 -14.730608,0 0,-192.61193 20.548582,0 0,46.79133 c -5.3e-5,10.48073 -0.330151,19.8885 -0.990293,28.22334 l 0.990293,0 c 9.572776,-13.53387 23.766953,-20.30086 42.582588,-20.301 m -2.97088,17.20634 c -14.029218,1.2e-4 -24.138443,4.04381 -30.327728,12.13108 -6.189373,8.00497 -9.284033,21.53895 -9.28398,40.602 -5.3e-5,19.06319 3.17714,32.72095 9.531562,40.97336 6.354317,8.16994 16.546074,12.25489 30.575286,12.25487 12.62614,2e-5 22.0339,-4.58008 28.22335,-13.74031 6.18921,-9.2427 9.28387,-22.48785 9.28398,-39.73549 -1.1e-4,-17.66014 -3.09477,-30.82276 -9.28398,-39.48792 -6.18945,-8.66495 -15.76226,-12.99747 -28.71849,-12.99759"
       inkscape:connector-curvature="0" />
  </g>
</svg>
