<?xml version="1.0" encoding="UTF-8" standalone="no"?>
<!-- Created with Inkscape (http://www.inkscape.org/) -->

<svg
   xmlns:osb="http://www.openswatchbook.org/uri/2009/osb"
   xmlns:dc="http://purl.org/dc/elements/1.1/"
   xmlns:cc="http://creativecommons.org/ns#"
   xmlns:rdf="http://www.w3.org/1999/02/22-rdf-syntax-ns#"
   xmlns:svg="http://www.w3.org/2000/svg"
   xmlns="http://www.w3.org/2000/svg"
   xmlns:xlink="http://www.w3.org/1999/xlink"
   xmlns:sodipodi="http://sodipodi.sourceforge.net/DTD/sodipodi-0.dtd"
   xmlns:inkscape="http://www.inkscape.org/namespaces/inkscape"
   width="513.99994"
   height="288.69949"
   viewBox="0 0 513.99998 288.6995"
   id="svg4279"
   version="1.1"
   inkscape:version="0.91 r13725"
   sodipodi:docname="bunsenlabs-penguin-hydrogen.svg">
  <defs
     id="defs4281">
    <linearGradient
       inkscape:collect="always"
       xlink:href="#linearGradient4230"
       id="linearGradient4303"
       gradientUnits="userSpaceOnUse"
       x1="-689.46283"
       y1="1634.0875"
       x2="-648.70154"
       y2="1751.0382"
       gradientTransform="matrix(0.94968062,0,0,0.94968062,888.8943,-1084.7343)" />
    <linearGradient
       id="linearGradient4230"
       osb:paint="gradient">
      <stop
         style="stop-color:#fbe30f;stop-opacity:1;"
         offset="0"
         id="stop4232" />
      <stop
         style="stop-color:#fbe30f;stop-opacity:0;"
         offset="1"
         id="stop4234" />
    </linearGradient>
    <radialGradient
       inkscape:collect="always"
       xlink:href="#linearGradient4262"
       id="radialGradient4305"
       gradientUnits="userSpaceOnUse"
       gradientTransform="matrix(0.38704343,1.3398138,-0.70640878,0.20830443,1703.0661,1050.4679)"
       cx="-664.20258"
       cy="1682.3625"
       fx="-664.20258"
       fy="1682.3625"
       r="21.048254" />
    <linearGradient
       inkscape:collect="always"
       id="linearGradient4262">
      <stop
         style="stop-color:#ab380b;stop-opacity:1"
         offset="0"
         id="stop4264" />
      <stop
         style="stop-color:#ab380b;stop-opacity:0.00137255"
         offset="1"
         id="stop4266" />
    </linearGradient>
    <linearGradient
       inkscape:collect="always"
       xlink:href="#linearGradient4224"
       id="linearGradient4307"
       gradientUnits="userSpaceOnUse"
       x1="-607.1236"
       y1="1643.5056"
       x2="-606.86841"
       y2="1651.946"
       gradientTransform="matrix(0.94968062,0,0,0.94968062,888.8943,-1084.7343)" />
    <linearGradient
       id="linearGradient4224"
       inkscape:collect="always">
      <stop
         id="stop4226"
         offset="0"
         style="stop-color:#f3ab08;stop-opacity:1;" />
      <stop
         id="stop4228"
         offset="1"
         style="stop-color:#ab380b;stop-opacity:1" />
    </linearGradient>
    <linearGradient
       inkscape:collect="always"
       xlink:href="#linearGradient4185"
       id="linearGradient4309"
       gradientUnits="userSpaceOnUse"
       x1="-607.1236"
       y1="1643.5056"
       x2="-606.86841"
       y2="1651.946"
       gradientTransform="matrix(0.94968062,0,0,0.94968062,888.8943,-1084.7343)" />
    <linearGradient
       inkscape:collect="always"
       id="linearGradient4185">
      <stop
         style="stop-color:#333333;stop-opacity:1;"
         offset="0"
         id="stop4187" />
      <stop
         style="stop-color:#ab380b;stop-opacity:1"
         offset="1"
         id="stop4189" />
    </linearGradient>
  </defs>
  <sodipodi:namedview
     id="base"
     pagecolor="#ffffff"
     bordercolor="#666666"
     borderopacity="1.0"
     inkscape:pageopacity="0"
     inkscape:pageshadow="2"
     inkscape:zoom="0.70000001"
     inkscape:cx="110.76237"
     inkscape:cy="161.97416"
     inkscape:document-units="px"
     inkscape:current-layer="layer1"
     showgrid="false"
     inkscape:window-width="1918"
     inkscape:window-height="1078"
     inkscape:window-x="0"
     inkscape:window-y="0"
     inkscape:window-maximized="0"
     fit-margin-top="1"
     fit-margin-left="1"
     fit-margin-right="1"
     fit-margin-bottom="1"
     units="px" />
  <metadata
     id="metadata4284">
    <rdf:RDF>
      <cc:Work
         rdf:about="">
        <dc:format>image/svg+xml</dc:format>
        <dc:type
           rdf:resource="http://purl.org/dc/dcmitype/StillImage" />
        <dc:title></dc:title>
      </cc:Work>
    </rdf:RDF>
  </metadata>
  <g
     inkscape:label="Capa 1"
     inkscape:groupmode="layer"
     id="layer1"
     transform="translate(-108.46052,-623.85068)">
    <g
       id="g4275"
       transform="matrix(0.62356976,0,0,0.62356976,41.20425,342.50515)">
      <g
         id="g4243">
        <g
           style="font-style:normal;font-weight:normal;font-size:103.50608063px;line-height:125%;font-family:sans-serif;letter-spacing:0px;word-spacing:0px;fill:#333333;fill-opacity:1;stroke:none;stroke-width:1px;stroke-linecap:butt;stroke-linejoin:miter;stroke-opacity:1"
           id="text4286">
          <path
             d="m 405.07932,665.89304 q 10.00693,0 15.66742,7.83371 5.66049,7.78318 5.66049,21.37846 0,13.9996 -5.86265,21.68169 -5.81211,7.68209 -15.86958,7.68209 -9.9564,0 -15.61689,-7.22723 l -1.06134,0 -2.57754,6.21643 -11.77584,0 0,-78.64036 15.41472,0 0,18.29551 q 0,3.48726 -0.60648,11.16935 l 0.60648,0 q 5.40779,-8.38965 16.02121,-8.38965 z m -4.95293,12.33178 q -5.71103,0 -8.33911,3.53781 -2.62809,3.48726 -2.72917,11.57367 l 0,1.66783 q 0,9.09721 2.67863,13.03934 2.72916,3.94212 8.59181,3.94212 4.75077,0 7.53047,-4.34644 2.83025,-4.39699 2.83025,-12.7361 0,-8.33912 -2.83025,-12.4834 -2.83024,-4.19483 -7.73263,-4.19483 z"
             style="font-style:normal;font-variant:normal;font-weight:bold;font-stretch:normal;font-family:'Open Sans';-inkscape-font-specification:'Open Sans Bold';fill:#333333;fill-opacity:1"
             id="path4205"
             inkscape:connector-curvature="0" />
          <path
             d="m 479.17107,723.45819 -2.07214,-7.22723 -0.80864,0 q -2.47647,3.94213 -7.02508,6.11535 -4.5486,2.12268 -10.36071,2.12268 -9.9564,0 -15.0104,-5.30671 -5.05401,-5.35724 -5.05401,-15.36418 l 0,-36.84372 15.41472,0 0,33.00267 q 0,6.11535 2.17322,9.1983 2.17323,3.0324 6.924,3.0324 6.46913,0 9.34991,-4.2959 2.88078,-4.34645 2.88078,-14.35339 l 0,-26.58408 15.41473,0 0,56.50381 -11.82638,0 z"
             style="font-style:normal;font-variant:normal;font-weight:bold;font-stretch:normal;font-family:'Open Sans';-inkscape-font-specification:'Open Sans Bold';fill:#333333;fill-opacity:1"
             id="path4207"
             inkscape:connector-curvature="0" />
          <path
             d="m 559.42871,723.45819 -15.41472,0 0,-33.00267 q 0,-6.11535 -2.17323,-9.14775 -2.17322,-3.08295 -6.92399,-3.08295 -6.46913,0 -9.34991,4.34645 -2.88079,4.2959 -2.88079,14.30284 l 0,26.58408 -15.41472,0 0,-56.50381 11.77584,0 2.07214,7.22723 0.85918,0 q 2.57755,-4.09374 7.07561,-6.16589 4.54861,-2.12268 10.31018,-2.12268 9.85531,0 14.95986,5.35725 5.10455,5.30671 5.10455,15.36418 l 0,36.84372 z"
             style="font-style:normal;font-variant:normal;font-weight:bold;font-stretch:normal;font-family:'Open Sans';-inkscape-font-specification:'Open Sans Bold';fill:#333333;fill-opacity:1"
             id="path4209"
             inkscape:connector-curvature="0" />
          <path
             d="m 614.82065,706.67888 q 0,8.6929 -6.06481,13.24151 -6.01427,4.5486 -18.04281,4.5486 -6.16589,0 -10.51234,-0.85918 -4.34644,-0.80864 -8.13695,-2.42592 l 0,-12.7361 q 4.29591,2.0216 9.65316,3.38618 5.40778,1.36458 9.50153,1.36458 8.38965,0 8.38965,-4.85184 0,-1.81945 -1.11188,-2.93133 -1.11188,-1.16242 -3.84104,-2.57754 -2.72917,-1.46566 -7.27778,-3.38619 -6.51967,-2.72916 -9.60261,-5.054 -3.03241,-2.32485 -4.44753,-5.30671 -1.36458,-3.03241 -1.36458,-7.42939 0,-7.53048 5.81211,-11.62422 5.86265,-4.14429 16.57714,-4.14429 10.2091,0 19.86226,4.44753 l -4.64969,11.11882 q -4.24537,-1.81945 -7.93479,-2.98187 -3.68943,-1.16242 -7.53048,-1.16242 -6.82291,0 -6.82291,3.68943 0,2.07214 2.17323,3.58834 2.22376,1.5162 9.65315,4.49807 6.62075,2.67862 9.7037,5.00347 3.08294,2.32484 4.5486,5.35724 1.46567,3.03241 1.46567,7.22723 z"
             style="font-style:normal;font-variant:normal;font-weight:bold;font-stretch:normal;font-family:'Open Sans';-inkscape-font-specification:'Open Sans Bold';fill:#333333;fill-opacity:1"
             id="path4211"
             inkscape:connector-curvature="0" />
          <path
             d="m 650.35033,676.86024 q -4.90239,0 -7.68209,3.13348 -2.77971,3.08295 -3.18403,8.79398 l 21.63116,0 q -0.10108,-5.71103 -2.98187,-8.79398 -2.88078,-3.13348 -7.78317,-3.13348 z m 2.17322,47.60875 q -13.64582,0 -21.32791,-7.53047 -7.68209,-7.53047 -7.68209,-21.32791 0,-14.20176 7.07561,-21.9344 7.12615,-7.78317 19.66009,-7.78317 11.978,0 18.64929,6.82291 6.67129,6.82291 6.67129,18.85145 l 0,7.47993 -36.4394,0 q 0.2527,6.57021 3.89159,10.25964 3.63888,3.68942 10.20909,3.68942 5.10455,0 9.65316,-1.06134 4.54861,-1.06134 9.50153,-3.38618 l 0,11.92746 q -4.0432,2.0216 -8.64235,2.98186 -4.59915,1.0108 -11.2199,1.0108 z"
             style="font-style:normal;font-variant:normal;font-weight:bold;font-stretch:normal;font-family:'Open Sans';-inkscape-font-specification:'Open Sans Bold';fill:#333333;fill-opacity:1"
             id="path4213"
             inkscape:connector-curvature="0" />
          <path
             d="m 740.36221,723.45819 -15.41472,0 0,-33.00267 q 0,-6.11535 -2.17323,-9.14775 -2.17322,-3.08295 -6.92399,-3.08295 -6.46913,0 -9.34991,4.34645 -2.88078,4.2959 -2.88078,14.30284 l 0,26.58408 -15.41473,0 0,-56.50381 11.77584,0 2.07214,7.22723 0.85918,0 q 2.57755,-4.09374 7.07562,-6.16589 4.5486,-2.12268 10.31017,-2.12268 9.85532,0 14.95986,5.35725 5.10455,5.30671 5.10455,15.36418 l 0,36.84372 z"
             style="font-style:normal;font-variant:normal;font-weight:bold;font-stretch:normal;font-family:'Open Sans';-inkscape-font-specification:'Open Sans Bold';fill:#333333;fill-opacity:1"
             id="path4215"
             inkscape:connector-curvature="0" />
        </g>
        <g
           style="font-style:normal;font-weight:normal;font-size:103.50608063px;line-height:125%;font-family:sans-serif;letter-spacing:0px;word-spacing:0px;fill:#333333;fill-opacity:1;stroke:none;stroke-width:1px;stroke-linecap:butt;stroke-linejoin:miter;stroke-opacity:1"
           id="text4290">
          <path
             d="m 760.09709,723.45819 -5.00347,0 0,-78.64036 5.00347,0 0,78.64036 z"
             style="font-style:normal;font-variant:normal;font-weight:300;font-stretch:normal;font-family:'Open Sans';-inkscape-font-specification:'Open Sans Light';fill:#333333;fill-opacity:1"
             id="path4218"
             inkscape:connector-curvature="0" />
          <path
             d="m 811.90067,723.45819 -1.26351,-8.69289 -0.40432,0 q -4.14428,5.30671 -8.54127,7.53047 -4.34645,2.17322 -10.31018,2.17322 -8.08641,0 -12.58447,-4.14428 -4.49807,-4.14429 -4.49807,-11.4726 0,-8.03587 6.67129,-12.4834 6.72183,-4.44753 19.40739,-4.70023 l 10.46179,-0.30324 0,-3.63888 q 0,-7.83372 -3.18402,-11.82638 -3.18402,-3.99267 -10.25964,-3.99267 -7.63155,0 -15.81904,4.24537 l -1.86998,-4.34645 q 9.04667,-4.24537 17.89118,-4.24537 9.04668,0 13.49421,4.70023 4.49806,4.70023 4.49806,14.65662 l 0,36.54048 -3.68942,0 z m -20.21603,-3.5378 q 8.79397,0 13.84798,-5.00347 5.10454,-5.05401 5.10454,-13.9996 l 0,-5.40779 -9.60261,0.40432 q -11.57368,0.55594 -16.52661,3.63888 -4.90238,3.03241 -4.90238,9.50154 0,5.15509 3.13348,8.03587 3.18403,2.83025 8.9456,2.83025 z"
             style="font-style:normal;font-variant:normal;font-weight:300;font-stretch:normal;font-family:'Open Sans';-inkscape-font-specification:'Open Sans Light';fill:#333333;fill-opacity:1"
             id="path4220"
             inkscape:connector-curvature="0" />
          <path
             d="m 856.52755,667.45978 q 11.52314,0 17.33525,7.27778 5.86265,7.22723 5.86265,21.17629 0,13.69636 -6.16589,21.12575 -6.11535,7.42939 -17.23417,7.42939 -5.86265,0 -10.56287,-2.42592 -4.70023,-2.42593 -7.4294,-6.87345 l -0.45486,0 -1.41512,8.28857 -3.13348,0 0,-78.64036 5.00346,0 0,19.76117 q 0,4.44753 -0.20216,8.18749 l -0.15162,4.29591 0.35378,0 q 3.13349,-4.95293 7.53048,-7.27777 4.44752,-2.32485 10.66395,-2.32485 z m -0.10108,4.54861 q -9.70369,0 -13.89852,5.55941 -4.19483,5.55941 -4.19483,18.34605 l 0,0.85918 q 0,12.43286 4.34645,17.84065 4.39699,5.40779 13.64582,5.40779 8.99614,0 13.54474,-6.26697 4.54861,-6.31751 4.54861,-17.94173 0,-23.80438 -17.99227,-23.80438 z"
             style="font-style:normal;font-variant:normal;font-weight:300;font-stretch:normal;font-family:'Open Sans';-inkscape-font-specification:'Open Sans Light';fill:#333333;fill-opacity:1"
             id="path4222"
             inkscape:connector-curvature="0" />
          <path
             d="m 929.05258,709.15535 q 0,7.37885 -5.60995,11.37152 -5.60995,3.94212 -15.92013,3.94212 -11.01774,0 -17.48687,-3.38618 l 0,-5.40779 q 8.28858,4.14429 17.48687,4.14429 8.13695,0 12.33178,-2.67863 4.24537,-2.72916 4.24537,-7.22723 0,-4.14429 -3.38619,-6.97453 -3.33564,-2.83025 -11.01773,-5.55941 -8.23804,-2.98186 -11.57368,-5.10455 -3.33565,-2.17322 -5.05401,-4.85185 -1.66782,-2.72916 -1.66782,-6.62075 0,-6.16588 5.15508,-9.75423 5.20563,-3.58835 14.50501,-3.58835 8.89505,0 16.88038,3.33565 l -1.86998,4.54861 q -8.08641,-3.33565 -15.0104,-3.33565 -6.72183,0 -10.66396,2.22376 -3.94213,2.22377 -3.94213,6.16589 0,4.29591 3.03241,6.87345 3.08294,2.57755 11.978,5.76157 7.42939,2.67863 10.81557,4.85185 3.38619,2.12268 5.05401,4.85185 1.71837,2.72916 1.71837,6.41859 z"
             style="font-style:normal;font-variant:normal;font-weight:300;font-stretch:normal;font-family:'Open Sans';-inkscape-font-specification:'Open Sans Light';fill:#333333;fill-opacity:1"
             id="path4224"
             inkscape:connector-curvature="0" />
        </g>
        <g
           style="font-style:normal;font-weight:normal;font-size:58.99403381px;line-height:125%;font-family:sans-serif;letter-spacing:0px;word-spacing:0px;fill:#333333;fill-opacity:1;stroke:none;stroke-width:1px;stroke-linecap:butt;stroke-linejoin:miter;stroke-opacity:1"
           id="text4294">
          <path
             d="m 709.94556,795.24323 0,-20.30801 q 0,-4.72413 -1.98759,-6.85575 -1.98759,-2.16043 -6.16441,-2.16043 -5.61711,0 -8.23843,2.85176 -2.59251,2.82296 -2.59251,9.18902 l 0,17.28341 -2.85176,0 0,-44.82164 2.85176,0 0,14.25881 -0.14403,4.00399 0.20164,0 q 1.75715,-2.82296 4.43608,-4.09041 2.67893,-1.26745 6.65411,-1.26745 10.6581,0 10.6581,11.43586 l 0,20.48084 -2.82296,0 z"
             style="font-style:normal;font-variant:normal;font-weight:300;font-stretch:normal;font-family:'Open Sans';-inkscape-font-specification:'Open Sans Light';fill:#333333;fill-opacity:1"
             id="path4227"
             inkscape:connector-curvature="0" />
          <path
             d="m 717.66549,763.93145 2.93817,0 6.62531,17.57147 q 3.0246,8.09439 3.83116,10.91735 l 0.17283,0 q 1.20984,-3.71593 3.94638,-11.09019 l 6.62531,-17.39863 2.93818,0 -14.02837,36.38157 q -1.69954,4.43608 -2.85176,5.99159 -1.15223,1.5555 -2.70774,2.33326 -1.5267,0.77775 -3.71593,0.77775 -1.64192,0 -3.65832,-0.60492 l 0,-2.47729 q 1.67073,0.46089 3.60071,0.46089 1.46909,0 2.59251,-0.69133 1.12342,-0.69134 2.0164,-2.16043 0.92178,-1.44028 2.10281,-4.60891 1.20984,-3.13982 1.55551,-4.0904 l -11.98316,-31.31178 z"
             style="font-style:normal;font-variant:normal;font-weight:300;font-stretch:normal;font-family:'Open Sans';-inkscape-font-specification:'Open Sans Light';fill:#333333;fill-opacity:1"
             id="path4229"
             inkscape:connector-curvature="0" />
          <path
             d="m 761.45012,763.32653 q 3.39907,0 5.87636,1.23865 2.47729,1.23864 4.43607,4.23443 l 0.17284,0 q -0.17284,-3.62952 -0.17284,-7.115 l 0,-11.26302 2.82296,0 0,44.82164 -1.87237,0 -0.72014,-4.78175 -0.23045,0 q -3.5719,5.35786 -10.25482,5.35786 -6.48128,0 -9.90915,-4.0328 -3.42788,-4.03279 -3.42788,-11.75271 0,-8.12321 3.39907,-12.41525 3.39907,-4.29205 9.88035,-4.29205 z m 0,2.59251 q -5.12741,0 -7.71992,3.60071 -2.56371,3.60071 -2.56371,10.45646 0,13.30823 10.34124,13.30823 5.30025,0 7.77753,-3.08221 2.47729,-3.08221 2.47729,-10.1684 l 0,-0.4897 q 0,-7.25903 -2.44848,-10.42766 -2.41968,-3.19743 -7.86395,-3.19743 z"
             style="font-style:normal;font-variant:normal;font-weight:300;font-stretch:normal;font-family:'Open Sans';-inkscape-font-specification:'Open Sans Light';fill:#333333;fill-opacity:1"
             id="path4231"
             inkscape:connector-curvature="0" />
          <path
             d="m 797.45722,763.32653 q 1.98759,0 4.26324,0.40328 l -0.5473,2.73654 q -1.95879,-0.4897 -4.06161,-0.4897 -4.00399,0 -6.56769,3.39907 -2.56371,3.39907 -2.56371,8.5841 l 0,17.28341 -2.85176,0 0,-31.31178 2.41968,0 0.28806,5.64591 0.20164,0 q 1.92998,-3.45668 4.11921,-4.83935 2.18923,-1.41148 5.30024,-1.41148 z"
             style="font-style:normal;font-variant:normal;font-weight:300;font-stretch:normal;font-family:'Open Sans';-inkscape-font-specification:'Open Sans Light';fill:#333333;fill-opacity:1"
             id="path4233"
             inkscape:connector-curvature="0" />
          <path
             d="m 833.95402,779.54413 q 0,7.66231 -3.71593,11.98316 -3.71594,4.29205 -10.25483,4.29205 -4.11921,0 -7.25903,-1.98759 -3.13982,-1.9876 -4.81055,-5.70353 -1.67073,-3.71593 -1.67073,-8.58409 0,-7.66231 3.71594,-11.92555 3.71593,-4.29205 10.19721,-4.29205 6.45247,0 10.11079,4.34966 3.68713,4.32085 3.68713,11.86794 z m -24.71527,0 q 0,6.45247 2.82295,10.08199 2.85176,3.60071 8.03679,3.60071 5.18502,0 8.00798,-3.60071 2.85176,-3.62952 2.85176,-10.08199 0,-6.48128 -2.88057,-10.05318 -2.85176,-3.57191 -8.03678,-3.57191 -5.18503,0 -8.00798,3.57191 -2.79415,3.5431 -2.79415,10.05318 z"
             style="font-style:normal;font-variant:normal;font-weight:300;font-stretch:normal;font-family:'Open Sans';-inkscape-font-specification:'Open Sans Light';fill:#333333;fill-opacity:1"
             id="path4235"
             inkscape:connector-curvature="0" />
          <path
             d="m 867.05175,763.93145 0,1.98759 -6.48128,0.40328 q 2.59251,3.22624 2.59251,7.0862 0,4.52249 -3.0246,7.34545 -2.99579,2.79415 -8.06559,2.79415 -2.13162,0 -2.99579,-0.17284 -1.69953,0.89298 -2.59251,2.10282 -0.89297,1.20984 -0.89297,2.5637 0,1.4979 1.12342,2.18924 1.15222,0.69133 3.83115,0.69133 l 5.47308,0 q 5.09861,0 7.80634,2.07401 2.70774,2.04521 2.70774,6.078 0,4.95458 -4.0328,7.63351 -4.00399,2.70773 -11.43585,2.70773 -5.90517,0 -9.16021,-2.27565 -3.22624,-2.27565 -3.22624,-6.33725 0,-3.22623 1.98759,-5.35786 2.0164,-2.13162 5.44428,-2.90937 -1.41148,-0.60492 -2.27565,-1.69953 -0.83537,-1.12343 -0.83537,-2.56371 0,-3.13982 4.00399,-5.53069 -2.73654,-1.12342 -4.26324,-3.51429 -1.5267,-2.41968 -1.5267,-5.53069 0,-4.69533 2.96699,-7.51829 2.99579,-2.85176 8.06559,-2.85176 3.08221,0 4.78174,0.60492 l 10.02438,0 z m -25.349,36.61202 q 0,6.45247 9.59229,6.45247 12.32883,0 12.32883,-7.86395 0,-2.82295 -1.92998,-4.0904 -1.92998,-1.26745 -6.25083,-1.26745 l -5.12741,0 q -8.6129,0 -8.6129,6.76933 z m 2.39087,-26.84689 q 0,3.62951 2.18923,5.64591 2.21804,1.98759 5.90517,1.98759 3.91757,0 5.99158,-1.98759 2.10281,-1.98759 2.10281,-5.76114 0,-4.00399 -2.16042,-5.99158 -2.13162,-2.0164 -5.99158,-2.0164 -3.74474,0 -5.90517,2.16043 -2.13162,2.13162 -2.13162,5.96278 z"
             style="font-style:normal;font-variant:normal;font-weight:300;font-stretch:normal;font-family:'Open Sans';-inkscape-font-specification:'Open Sans Light';fill:#333333;fill-opacity:1"
             id="path4237"
             inkscape:connector-curvature="0" />
          <path
             d="m 886.14991,795.81934 q -6.82695,0 -10.6581,-4.20563 -3.80235,-4.20563 -3.80235,-11.78152 0,-7.48948 3.68712,-11.98317 3.68713,-4.52249 9.93796,-4.52249 5.53069,0 8.72813,3.85996 3.19743,3.85996 3.19743,10.48527 l 0,2.30445 -22.55485,0 q 0.0576,6.45248 2.99579,9.85155 2.96698,3.39907 8.46887,3.39907 2.67893,0 4.69532,-0.37448 2.04521,-0.37447 5.15622,-1.61311 l 0,2.59251 q -2.65012,1.15222 -4.89696,1.5555 -2.24685,0.43209 -4.95458,0.43209 z m -0.83537,-29.95791 q -4.52249,0 -7.25903,2.99579 -2.73654,2.96699 -3.19743,8.58409 l 19.35742,0 q 0,-5.44427 -2.36207,-8.49767 -2.36206,-3.08221 -6.53889,-3.08221 z"
             style="font-style:normal;font-variant:normal;font-weight:300;font-stretch:normal;font-family:'Open Sans';-inkscape-font-specification:'Open Sans Light';fill:#333333;fill-opacity:1"
             id="path4239"
             inkscape:connector-curvature="0" />
          <path
             d="m 927.71652,795.24323 0,-20.30801 q 0,-4.72413 -1.9876,-6.85575 -1.98759,-2.16043 -6.16441,-2.16043 -5.61711,0 -8.23843,2.85176 -2.59251,2.82296 -2.59251,9.18902 l 0,17.28341 -2.85176,0 0,-31.31178 2.41968,0 0.5473,4.29205 0.17284,0 q 3.0534,-4.89697 10.85974,-4.89697 10.6581,0 10.6581,11.43586 l 0,20.48084 -2.82295,0 z"
             style="font-style:normal;font-variant:normal;font-weight:300;font-stretch:normal;font-family:'Open Sans';-inkscape-font-specification:'Open Sans Light';fill:#333333;fill-opacity:1"
             id="path4241"
             inkscape:connector-curvature="0" />
        </g>
      </g>
      <g
         id="g4266">
        <path
           sodipodi:nodetypes="ccsccccccccc"
           inkscape:connector-curvature="0"
           id="path4272"
           d="m 245.66944,455.71598 c -9.27792,2.23394 -18.96817,4.6939 -26.84753,9.72502 -1.35566,18.98193 2.05242,33.77273 5.04527,47.31907 0.75668,3.42493 3.89988,6.03475 4.63998,9.48038 l 2.1967,7.47294 21.97983,32.20804 c 25.17996,19.68631 53.51897,20.80237 48.35305,7.88368 -8.12497,-22.94961 -21.44354,-38.97442 -33.63691,-56.49954 -11.03507,2.14922 -18.36719,-6.06998 -26.01605,-13.40218 -5.82992,-8.14646 -6.34281,-16.29282 -0.26278,-24.43927 l 8.40923,-14.71616 c 2.50431,-7.68861 -1.94661,-4.28676 -3.86079,-5.03198 z"
           style="fill:url(#linearGradient4303);fill-opacity:1;fill-rule:evenodd;stroke:none;stroke-width:1px;stroke-linecap:butt;stroke-linejoin:miter;stroke-opacity:1" />
        <path
           inkscape:transform-center-y="-206.32365"
           inkscape:transform-center-x="9.9472021"
           style="fill:#333333;stroke:#333333;stroke-width:4.49040508;stroke-linecap:round;stroke-linejoin:round;stroke-miterlimit:4;stroke-dasharray:none;stroke-opacity:1"
           d="m 145.26706,741.72883 c -42.05841,-86.29321 -27.39097,-210.52976 75.24196,-274.72513 -4.03576,11.80823 -2.71333,31.49862 3.02293,46.20215 15.7327,36.2891 46.98469,67.09854 58.42787,125.64503 15.83991,81.94214 -14.16316,160.21292 -67.64889,221.82839 26.80417,-87.1823 40.3601,-193.51633 -23.85104,-245.75322 -44.94097,40.30938 -46.64859,77.84114 -45.19283,126.80278 z"
           id="path4274"
           inkscape:connector-curvature="0"
           sodipodi:nodetypes="ccccccc" />
        <path
           sodipodi:nodetypes="ccccccccc"
           inkscape:connector-curvature="0"
           id="path4276"
           d="m 248.76524,508.27691 c 6.30373,3.01248 12.60747,8.4098 18.9112,5.44025 l 10.50622,14.50732 c 0.42863,2.98826 0.39236,5.7091 -1.95116,7.10247 -7.15423,6.11025 -14.30846,3.42132 -21.4627,2.41789 -8.63799,-1.80421 -13.21403,-5.90892 -15.45916,-11.33378 -1.11213,-2.89215 -1.13837,-6.02724 -0.34891,-9.34485 0.54431,-2.22843 2.24405,-4.97832 3.75233,-6.41272 2.41763,-2.26689 3.63455,-3.10498 6.05218,-2.37658 z"
           style="fill:url(#radialGradient4305);fill-opacity:1;fill-rule:evenodd;stroke:none;stroke-width:1px;stroke-linecap:butt;stroke-linejoin:miter;stroke-opacity:1" />
        <path
           sodipodi:nodetypes="ccccccccccccccccccccccccccccccccccccccccccccccccccccccccccccccccccccccc"
           inkscape:connector-curvature="0"
           id="path4278"
           d="m 245.43401,455.82121 1.80656,-0.64009 2.37343,-0.74711 4.48146,-1.22822 3.43723,-0.21672 4.37659,-0.0228 2.62257,0.10313 2.19759,0.31606 2.41022,0.38718 2.09141,0.45822 2.51707,0.77646 2.19799,0.67067 2.46387,0.75898 2.14525,1.00723 2.30479,1.06042 2.55305,1.20172 2.55303,1.20173 2.00336,0.90124 2.5356,1.43212 2.19862,1.2022 2.44645,0.98929 2.42925,1.39688 2.51771,1.30809 2.58814,0.91815 2.65892,0.88273 3.17289,0.93525 3.40325,0.95262 4.4132,0.93373 5.77778,1.09146 6.64579,0.96678 8.22337,1.372 6.9828,1.19641 3.91608,0.11909 3.40283,0.59811 3.4745,1.27143 3.03143,1.18349 2.67748,1.5383 2.18145,1.60971 3.15779,3.11476 1.15446,2.21342 -0.37093,0.93952 -0.7809,-1.0267 -2.05612,-0.56449 -5.77751,-0.91445 -7.77964,-0.75243 -5.98985,-0.63049 -8.36411,-0.59223 -5.13813,0.36069 -4.78394,0.1831 -5.61628,0.55623 -5.49204,0.71539 -7.59979,1.37381 -6.55393,1.77989 c -10.41365,3.62721 -20.02327,9.329 -29.23542,15.32747 -1.70882,1.43392 -3.14609,4.5219 -4.31622,6.43351 -1.0507,1.84675 -2.55382,2.29006 -4.47637,2.55569 -1.5561,0.32365 -3.6272,-0.0161 -5.79282,-0.79574 -2.4075,-1.08064 -4.71211,-2.03089 -6.80828,-3.27459 -2.49926,-1.49176 -4.90344,-3.54981 -6.5992,-5.24461 -3.9694,-3.96767 -5.81036,-7.33913 -8.18716,-12.15724 -3.01825,-9.0365 0.0718,-13.35603 4.61791,-19.95745 l 2.81237,-4.0256 1.41493,-2.12804 1.34321,-2.80128 0.52962,-1.59536 1.00734,-2.14524 0.19267,-1.82538 -0.76367,-1.4343 -0.86919,-0.76079 -0.74473,-0.42432 -1.54218,-0.51207"
           style="fill:#333333;fill-opacity:1;fill-rule:evenodd;stroke:#333333;stroke-width:0.35454464px;stroke-linecap:butt;stroke-linejoin:miter;stroke-opacity:1" />
        <path
           sodipodi:nodetypes="cccscccccccccccccccc"
           inkscape:connector-curvature="0"
           id="path4298"
           d="m 286.41277,480.17007 c -2.58081,4.28705 3.81534,5.15192 9.69971,5.99495 3.34905,-0.0456 6.33381,-0.49981 9.76254,-0.59668 9.53821,-0.90277 16.31576,-1.58606 24.16904,-2.19737 1.67218,-0.13011 3.62175,0.14074 5.4022,-0.0304 l 3.96839,0.0779 -1.17295,-1.3777 -2.03717,-1.04579 -2.74743,-0.79412 -1.8255,-0.37 -7.85065,-0.89412 -7.12425,-0.94807 -6.45059,-0.66544 -5.56419,-0.31216 -5.20979,-0.31244 -4.44723,0.2358 -3.8263,0.85519 -2.33789,0.81796 -1.43433,0.76364 z"
           style="fill:url(#linearGradient4307);fill-opacity:1;fill-rule:evenodd;stroke:url(#linearGradient4309);stroke-width:0.35454464px;stroke-linecap:butt;stroke-linejoin:miter;stroke-opacity:1" />
        <path
           inkscape:connector-curvature="0"
           id="path4301"
           d="m 169.14817,891.00086 -2.46133,6.35849 -0.41025,4.10224 1.84603,4.10224 4.92268,2.66642 9.63518,-4.69541 7.99939,0.6152 10.05049,2.05103 9.23007,1.23079 9.75936,1.85862 13.20565,-5.07443 10.7038,6.24776 6.0269,1.10913 3.56998,0.98738 -1.51705,-3.3197 -8.77179,-13.39553 -25.64363,-4.80862 -9.57171,-4.29996 -0.62798,-2.29918 -0.61535,-4.10224 -1.02556,-3.2819 -1.84601,-3.07668 -2.05111,-1.64077 -5.33294,2.25606 -5.3329,4.71773 -3.69204,3.28181 -6.3585,0.40998 -2.57984,-3.06044 1.81366,-7.46629 1.41037,-5.77701 0.17629,-3.7971 c -4.17746,-32.62248 -8.66836,-55.23048 -21.64541,-77.323 0,0 -1.33051,-1.14978 -2.50939,0.61539 l -2.92003,17.84023 -4.92268,20.10113 -3.89713,9.84543 -6.76871,10.46064 -3.28179,6.15336 -2.05114,7.58918 -10.4607,14.76811 -7.99936,12.10159 -5.74317,8.4097 1.02557,4.51241 4.51247,-4.92257 -1.84598,6.15317 7.17891,-2.4612 5.74312,-4.30746 -3.07668,7.79422 13.3323,-4.51232 9.84537,-12.71717 -3.28179,12.71717 6.56358,-7.79431 6.15337,-12.10168 -2.25624,11.07612 7.9994,-11.48639 3.4869,-9.64011 5.90251,-3.08523 4.10222,0.20494 1.62732,2.62597 -2.10978,7.12441 -1.3805,5.03482 -3.01396,4.70909 0,4.5125 z"
           style="fill:#333333;fill-opacity:1;fill-rule:evenodd;stroke:none;stroke-width:1.5;stroke-linecap:round;stroke-linejoin:round;stroke-miterlimit:4;stroke-dasharray:none;stroke-opacity:1"
           sodipodi:nodetypes="cccccccccccccccccccccccccccccccccccccccccccccccccccccccccccccccc" />
        <path
           style="fill:#333333;fill-opacity:1;fill-rule:evenodd;stroke:#333333;stroke-width:0.58637935px;stroke-linecap:butt;stroke-linejoin:miter;stroke-opacity:1"
           d="m 220.26374,871.07286 2.95011,8.82775 2.87666,3.0821 8.6628,1.7117 13.47084,-3.20707 13.06809,-2.05786 15.80052,2.70573 -8.26026,-7.43258 -19.24181,-1.27741 -11.94332,-1.90706 -5.69929,1.67818 z"
           id="path4319"
           inkscape:connector-curvature="0"
           sodipodi:nodetypes="cccccccccccc" />
      </g>
    </g>
  </g>
</svg>
